<?xml version="1.0" encoding="UTF-8"?>
<svg width="16px" height="14px" viewBox="0 0 16 14" version="1.1" xmlns="http://www.w3.org/2000/svg" xmlns:xlink="http://www.w3.org/1999/xlink">
    <!-- Generator: Sketch 42 (36781) - http://www.bohemiancoding.com/sketch -->
    <title>Group</title>
    <desc>Created with Sketch.</desc>
    <defs></defs>
    <g id="Page-1" stroke="none" stroke-width="1" fill="none" fill-rule="evenodd">
        <g id="Artboard">
            <g id="Group">
                <path d="M1.24205124,13.4690923 C2.4983364,12.9321005 4.8883542,12.4683465 7.28659784,12.2509459 C6.77617916,12.0782907 6.8161949,11.8101579 7.52059005,11.5090682 C8.7390445,10.9882469 11.4840294,10.5660377 13.6516854,10.5660377 C15.8193414,10.5660377 16.5888213,10.9882469 15.3703669,11.5090682 C14.6659717,11.8101579 13.4514011,12.0782907 12.1331337,12.2509459 C13.5141658,12.4683465 13.7342915,12.9321005 12.4780063,13.4690923 L11.2359551,14 L0,14 L1.24205124,13.4690923 Z" id="Combined-Shape" fill-opacity="0.1" fill="#000000"></path>
                <path d="M0.0803153327,11.8355303 C0.16155108,9.64625573 1.53677918,7.7555665 3.45930525,6.86924089 C2.57108137,6.16533918 2.02436687,5.07218209 2.0699155,3.8446627 C2.14870498,1.72131412 3.96980887,0 6.13746489,0 C8.3051209,0 9.9984818,1.72131412 9.91969232,3.8446627 C9.87414369,5.07218209 9.24630329,6.16533918 8.30584113,6.86924089 C10.1625908,7.7555665 11.3975061,9.64625573 11.3162704,11.8355303 L11.2359551,14 L2.63252795e-16,14 L0.0803153327,11.8355303 Z" id="Combined-Shape" fill="#FFFFFF"></path>
            </g>
        </g>
    </g>
</svg>