<?xml version="1.0" encoding="UTF-8"?>
<svg width="20px" height="20px" viewBox="0 0 20 20" version="1.1" xmlns="http://www.w3.org/2000/svg" xmlns:xlink="http://www.w3.org/1999/xlink">
    <!-- Generator: Sketch 42 (36781) - http://www.bohemiancoding.com/sketch -->
    <title>icon-rainbow</title>
    <desc>Created with Sketch.</desc>
    <defs>
        <path d="M20,5.52924081 L20,20 L0,20 L0,5.52924081 C2.97323382,3.91614183 6.37962871,3 10,3 C13.6203713,3 17.0267662,3.91614183 20,5.52924081 Z" id="path-1"></path>
        <mask id="mask-2" maskContentUnits="userSpaceOnUse" maskUnits="objectBoundingBox" x="0" y="0" width="20" height="17" fill="white">
            <use xlink:href="#path-1"></use>
        </mask>
        <mask id="mask-4" maskContentUnits="userSpaceOnUse" maskUnits="objectBoundingBox" x="0" y="0" width="20" height="17" fill="white">
            <use xlink:href="#path-1"></use>
        </mask>
    </defs>
    <g id="Page-1" stroke="none" stroke-width="1" fill="none" fill-rule="evenodd">
        <g id="icon-rainbow">
            <g id="Group" transform="translate(-11.000000, 4.000000)">
                <path d="M21,42 C9.40202025,42 0,32.5979797 0,21 C0,9.40202025 9.40202025,0 21,0 C32.5979797,0 42,9.40202025 42,21 C42,32.5979797 32.5979797,42 21,42 Z M21,39 C30.9411255,39 39,30.9411255 39,21 C39,11.0588745 30.9411255,3 21,3 C11.0588745,3 3,11.0588745 3,21 C3,30.9411255 11.0588745,39 21,39 Z" id="Combined-Shape" fill="#FF0000"></path>
                <path d="M21,45 C9.40202025,45 0,35.5979797 0,24 C0,12.4020203 9.40202025,3 21,3 C32.5979797,3 42,12.4020203 42,24 C42,35.5979797 32.5979797,45 21,45 Z M21,42 C30.9411255,42 39,33.9411255 39,24 C39,14.0588745 30.9411255,6 21,6 C11.0588745,6 3,14.0588745 3,24 C3,33.9411255 11.0588745,42 21,42 Z" id="Combined-Shape" fill="#FF9B00"></path>
                <path d="M21,48 C9.40202025,48 0,38.5979797 0,27 C0,15.4020203 9.40202025,6 21,6 C32.5979797,6 42,15.4020203 42,27 C42,38.5979797 32.5979797,48 21,48 Z M21,45 C30.9411255,45 39,36.9411255 39,27 C39,17.0588745 30.9411255,9 21,9 C11.0588745,9 3,17.0588745 3,27 C3,36.9411255 11.0588745,45 21,45 Z" id="Combined-Shape" fill="#EBFF00"></path>
                <path d="M21,51 C9.40202025,51 0,41.5979797 0,30 C0,18.4020203 9.40202025,9 21,9 C32.5979797,9 42,18.4020203 42,30 C42,41.5979797 32.5979797,51 21,51 Z M21,48 C30.9411255,48 39,39.9411255 39,30 C39,20.0588745 30.9411255,12 21,12 C11.0588745,12 3,20.0588745 3,30 C3,39.9411255 11.0588745,48 21,48 Z" id="Combined-Shape" fill="#1CE500"></path>
                <path d="M21,54 C9.40202025,54 0,44.5979797 0,33 C0,21.4020203 9.40202025,12 21,12 C32.5979797,12 42,21.4020203 42,33 C42,44.5979797 32.5979797,54 21,54 Z M21,51 C30.9411255,51 39,42.9411255 39,33 C39,23.0588745 30.9411255,15 21,15 C11.0588745,15 3,23.0588745 3,33 C3,42.9411255 11.0588745,51 21,51 Z" id="Combined-Shape" fill="#0079E5"></path>
                <path d="M21,57 C9.40202025,57 0,47.5979797 0,36 C0,24.4020203 9.40202025,15 21,15 C32.5979797,15 42,24.4020203 42,36 C42,47.5979797 32.5979797,57 21,57 Z M21,54 C30.9411255,54 39,45.9411255 39,36 C39,26.0588745 30.9411255,18 21,18 C11.0588745,18 3,26.0588745 3,36 C3,45.9411255 11.0588745,54 21,54 Z" id="Combined-Shape" fill="#8200E5"></path>
            </g>
            <mask id="mask-3" fill="white">
                <use xlink:href="#path-1"></use>
            </mask>
            <g id="Combined-Shape" stroke="#000000" mask="url(#mask-2)" stroke-width="2">
                <use mask="url(#mask-4)" xlink:href="#path-1"></use>
            </g>
        </g>
    </g>
</svg>